<?xml version="1.0" encoding="UTF-8"?>
<svg id="Layer_1" data-name="Layer 1" xmlns="http://www.w3.org/2000/svg" viewBox="0 0 356 28.18">
  <defs>
    <style>
      .cls-1 {
        fill: #fffceb;
      }
    </style>
  </defs>
  <path class="cls-1" d="M20.79,10.64c.75-1.6.4-2.14-.8-2.45-.4-.09-.85-.4-.85-.62,0-.27.31-.49,1.12-.49.58,0,1.25.13,2.36.13s2.05-.13,2.58-.13c.85,0,1.07.27,1.07.4,0,.44-.4.54-1.02.76-1.07.36-1.61.76-2.58,2.27-.31.54-1.11,1.69-2.89,5.21-.18.27-.14.54-.05.76.93,2.05,2.27,4.94,3.16,6.68.14.22.27.05.36-.13.44-.8,4.09-8.5,5.7-12.51.67-1.6.27-1.91-1.07-2.27-.4-.09-.98-.22-.98-.62s.54-.49.98-.49c.8,0,2.14.09,2.76.09,1.02,0,2.31-.18,3.34-.18.58,0,1.11.13,1.11.44,0,.44-.58.67-1.2.8-1.07.27-2.05.71-2.85,2.32-2.05,3.87-4.32,8.1-6.27,12.29l-1.92,4.41c-.13.44-.85.89-1.11.89s-.44-.36-.58-.71c-1.07-2.63-2.23-5.03-3.47-7.57-.13-.31-.31-.31-.4-.13-.98,2-2.81,5.34-3.65,7.52-.13.4-.49.89-.94.89-.26,0-.53-.4-.67-.76-.22-.36-.85-2.05-2.14-4.85-1.25-2.72-5.12-10.33-5.92-11.8-.58-1.11-1.69-2.23-2.89-2.54-.53-.13-1.07-.36-1.07-.76,0-.22.31-.49,1.34-.49.71,0,2.58.22,4.32.22,1.47,0,2.36-.09,2.67-.09.62,0,.93.22.93.49s-.05.44-.98.76c-.49.18-1.25.44-.93,1.11.67,1.56,4.14,8.77,6.5,13.49.09.18.26.13.35-.05.22-.4,1.16-2.31,2.41-4.9.09-.22.18-.36.04-.62-1.24-2.72-2.94-5.92-3.29-6.63-1.02-1.91-1.38-2.27-2.27-2.49-.63-.18-.98-.4-.98-.71,0-.27.53-.49,1.07-.49.45,0,1.6.13,2.67.13,1.56,0,3.16-.18,3.47-.18.53,0,.93.18.93.44s-.18.54-.85.71c-1.16.27-1.29.67-.93,1.43.31.62,1.11,2.4,2.14,4.67.09.18.36.22.45.05.71-1.34,1.24-2.54,1.74-3.7Z"/>
  <path class="cls-1" d="M45.37,7.04c.22,1.51.44,2.18.54,2.36.58,1.65,4.36,11.22,5.47,13.67.94,2.23,1.29,2.58,3.21,3.07.8.22,1.07.45,1.07.67,0,.36-.44.71-.93.71-2.14,0-3.78-.22-5.25-.22-1.07,0-1.82.13-3.25.13-.67,0-1.07-.31-1.07-.62,0-.27.31-.49,1.07-.67,1.34-.31,1.78-1.02,1.78-1.56,0-.36-.76-2.67-1.07-3.38-.09-.27-.27-.4-1.07-.44-.58-.05-3.65-.05-5.16,0-.85.04-1.25.04-1.38.27-.31.76-1.07,2.54-1.07,3.43s.27,1.29,1.74,1.74c.49.18.98.27.98.71,0,.36-.49.54-1.02.54-1.16,0-2.09-.13-3.25-.13-1.47,0-2.58.22-3.69.22-.4,0-.89-.18-.89-.53s.44-.54,1.07-.71c1.56-.4,2.18-.76,3.34-2.89.71-1.43,4.36-10.06,4.94-11.49.58-1.34.93-2.31,1.02-2.89.04-.22.22-.49.53-.8.27-.4.8-.76,1.12-1.16.36-.49.54-.54.76-.54.18,0,.44.22.49.54ZM45.95,18.48c-.8-2.14-2.31-5.97-2.54-6.5,0-.05-.36-.22-.45-.05-.8,2.05-2,4.81-2.67,6.63,0,.13.14.4.31.4.8.05,4.32.09,5.03-.04.13,0,.4-.22.31-.45Z"/>
  <path class="cls-1" d="M69.05,7.21c5.03,0,5.43-.31,6.54-1.02.18-.09.67.13.67.67-.09,2,.13,3.83.13,4.32,0,.62-.4.98-.62.98-.31,0-.58-.31-.71-.8-.8-2.32-1.51-2.45-2.45-2.49-.93-.05-3.43,0-4.85.13-.18,0-.31.4-.36.62-.09.67-.09,5.61-.09,10.15,0,2.45.09,3.92.31,4.67.27,1.02.67,1.2,2.49,1.69.8.18,1.12.45,1.12.76s-.63.58-1.2.58c-1.87,0-2.31-.18-4.45-.18-1.16,0-3.56.22-4.67.22-.62,0-1.11-.27-1.11-.62s.67-.58,1.25-.71c2.49-.62,2.54-1.16,2.62-2.89.14-3.92.27-8.55.27-13.71,0-.09-.18-.49-.44-.54-.8-.13-3.56-.36-4.5-.26-.85.09-1.47.49-2.23,1.69-.54.8-.67,1.2-1.02,1.2s-.53-.54-.53-.89c.04-.85.53-2.94.53-4.01,0-.54.54-.76.67-.76.31,0,.62.31.8.49.4.36,1.34.71,6.01.71h5.83Z"/>
  <path class="cls-1" d="M93.54,7.21c.31.05.44.58.44,1.07,0,1.29.05,2.32-.04,2.89-.13.85-.49.98-.62.98-.4,0-.58-.54-.71-1.07-.36-1.29-.94-2-1.51-2.49-.58-.49-1.61-.89-2.67-.89-2.23,0-3.74,1.56-3.74,3.47,0,1.51,1.25,2.72,2.76,3.56,1.43.8,2.63,1.38,3.92,2.14,1.87,1.07,3.38,2.72,3.38,5.21,0,2.05-1.38,3.74-2.67,4.54-.93.62-2.98,1.38-4.94,1.38-2.67,0-4.59-.62-5.61-1.38-.36-.22-.45-.67-.49-.93-.04-.54-.4-2.67-.4-3.34,0-.85.31-1.2.62-1.2.4,0,.54.49.71.98.22.58.67,1.51,1.02,2.09,1.11,1.47,2.67,2.54,4.63,2.54,2.49,0,3.69-1.78,3.69-3.29,0-1.74-.93-2.67-2.58-3.69-1.34-.8-2.54-1.43-3.52-2.05-1.6-1.02-3.65-2.76-3.65-5.43,0-3.34,2.76-5.79,7.21-5.79,2.27,0,3.52.54,4.76.71Z"/>
  <path class="cls-1" d="M122.12,16.96c0,3.7-1.16,6.19-3.56,8.37-2.45,2.31-6.05,2.67-7.17,2.67-7.34,0-11.44-5.39-11.44-10.73,0-3.12,1.2-5.79,3.21-7.66,2.58-2.45,5.61-3.12,7.84-3.12,6.23,0,11.13,4.63,11.13,10.46ZM106.19,9.84c-1.11,1.16-2.18,3.21-2.18,6.99,0,6.28,4.54,9.84,7.52,9.84,1.07,0,3.16-.31,4.85-2.45,1.2-1.56,1.74-4.32,1.74-7.03s-1.96-9.4-7.66-9.4c-1.07,0-2.98.58-4.28,2.05Z"/>
  <path class="cls-1" d="M127.02,6.99c1.02,0,4.01.22,5.03.22.36,0,.58.22.89.62.85,1.07,1.83,2.05,2.98,3.38,1.2,1.42,6.99,7.7,9.26,10.11.04.05.31.09.31-.18.05-2.45.27-8.28.05-10.42-.13-1.29-.62-2-2.76-2.49-.36-.13-.93-.31-.93-.71,0-.49.93-.49,1.07-.49,1.51,0,2.67.18,3.78.18.89,0,2-.18,3.12-.18.45,0,.94.18.94.49s-.22.44-.94.71c-1.74.49-2.09,1.07-2.27,2.8-.18,1.69-.4,7.39-.4,9.97s.13,5.43.13,5.74c0,.71-.18,1.2-.58,1.2-.31,0-.98-.36-1.34-.67-.76-.89-2.49-3.25-4.94-5.88-2.05-2.23-5.16-6.05-7.79-8.81-.09-.13-.4-.13-.4.18-.05,1.51-.27,7.97-.05,10.91.13,1.43,1.16,2.05,2.49,2.49.49.18.8.36.8.67,0,.44-.62.58-1.02.58-.13,0-1.51-.13-2.76-.13-1.11,0-2.98.27-3.96.27-.58,0-1.07-.13-1.07-.58,0-.22.18-.4,1.02-.62,2.14-.54,2.4-1.34,2.54-2.45.09-1.11.36-5.34.36-9.21,0-2.09-.04-3.34-.09-3.69-.04-.36-.71-1.47-1.6-2.14-.4-.31-.89-.54-1.82-.71-.8-.13-1.16-.36-1.16-.71,0-.18.54-.44,1.11-.44Z"/>
  <path class="cls-1" d="M179.02,5.52c.05,2.63-2.67,3.87-4.41,4.94-.13.09-.05.27,0,.27,1.82,1.16,5.43,4.63,7.35,6.99.26.36.4.27.67,0,1.43-1.42,3.92-5.12,4.59-6.14.58-.89.54-1.11.54-1.34,0-.31-.54-.67-1.92-.94-.31-.04-.89-.22-.89-.58,0-.27.4-.54,1.11-.54,1.96,0,3.7-.04,4.5-.13.98-.13,2.67-.4,3.16-.4.62,0,.98.27.98.45,0,.31-.31.54-.98.71-2.27.62-3.47,1.82-5.3,3.83-1.34,1.47-4.1,4.94-5.34,6.32-.09.13-.13.4,0,.54l2.4,3.47c1.34,1.91,3.21,2.36,4.9,2.4,1.16,0,2.49-.44,3.34-.98.31-.22.49,0,.49.18,0,.4-.22.85-.8,1.42-1.87,1.74-4.67,2.09-6.01,2.05-.89,0-2.05-.13-2.85-.45-.8-.36-1.29-.8-1.83-1.78-.85-1.56-1.65-3.03-2.09-3.65-.04-.04-.18-.13-.27-.04-1.42,1.69-3.74,3.96-5.16,4.81-1.34.76-2.49,1.2-4.23,1.2-4.27,0-7.92-3.34-7.92-7.92,0-3.47,2.67-5.65,4.1-6.77.71-.54,2.45-1.74,2.67-1.87.09-.05.13-.18.04-.27-1.69-1.34-2.98-3.21-2.98-5.12,0-2.45,1.43-3.96,2.09-4.54,1.2-.98,2.85-1.65,4.23-1.65,3.56.05,5.83,3.16,5.83,5.52ZM169.81,4.85c0,2.05,1.82,3.96,3.52,4.99.27.13.49.05.62-.05.45-.27.67-.53,1.2-1.16.53-.62.8-2,.8-3.07,0-1.47-.85-4.23-3.43-4.27-.76,0-2.72.85-2.72,3.56ZM179.43,21.19c.18-.27.18-.58-.18-1.02-2.18-2.98-6.72-7.17-7.88-7.79-.27-.18-.67-.13-.98.09-2.05,1.56-3.83,3.74-3.83,6.63,0,1.65.8,3.3,2,4.32,1.11.98,2.49,1.74,4.41,1.74,2.31,0,4.99-1.96,6.46-3.96Z"/>
  <path class="cls-1" d="M226.04,10.64c.76-1.6.4-2.14-.8-2.45-.4-.09-.85-.4-.85-.62,0-.27.31-.49,1.11-.49.58,0,1.25.13,2.36.13s2.05-.13,2.58-.13c.85,0,1.07.27,1.07.4,0,.44-.4.54-1.02.76-1.07.36-1.6.76-2.58,2.27-.31.54-1.11,1.69-2.89,5.21-.18.27-.13.54-.05.76.93,2.05,2.27,4.94,3.16,6.68.13.22.27.05.36-.13.44-.8,4.09-8.5,5.7-12.51.67-1.6.26-1.91-1.07-2.27-.4-.09-.98-.22-.98-.62s.54-.49.98-.49c.8,0,2.14.09,2.76.09,1.02,0,2.31-.18,3.34-.18.58,0,1.11.13,1.11.44,0,.44-.58.67-1.2.8-1.07.27-2.05.71-2.85,2.32-2.05,3.87-4.32,8.1-6.28,12.29l-1.91,4.41c-.13.44-.85.89-1.11.89s-.45-.36-.58-.71c-1.07-2.63-2.23-5.03-3.47-7.57-.13-.31-.31-.31-.4-.13-.98,2-2.81,5.34-3.65,7.52-.13.4-.49.89-.93.89-.27,0-.54-.4-.67-.76-.22-.36-.85-2.05-2.14-4.85-1.25-2.72-5.12-10.33-5.92-11.8-.58-1.11-1.69-2.23-2.89-2.54-.54-.13-1.07-.36-1.07-.76,0-.22.31-.49,1.34-.49.71,0,2.58.22,4.32.22,1.47,0,2.36-.09,2.67-.09.62,0,.93.22.93.49s-.04.44-.98.76c-.49.18-1.25.44-.93,1.11.67,1.56,4.14,8.77,6.5,13.49.09.18.27.13.36-.05.22-.4,1.16-2.31,2.41-4.9.09-.22.18-.36.05-.62-1.25-2.72-2.94-5.92-3.3-6.63-1.02-1.91-1.38-2.27-2.27-2.49-.62-.18-.98-.4-.98-.71,0-.27.53-.49,1.07-.49.44,0,1.6.13,2.67.13,1.56,0,3.16-.18,3.47-.18.54,0,.94.18.94.44s-.18.54-.85.71c-1.16.27-1.29.67-.94,1.43.31.62,1.11,2.4,2.14,4.67.09.18.36.22.44.05.71-1.34,1.25-2.54,1.74-3.7Z"/>
  <path class="cls-1" d="M250.62,7.04c.22,1.51.44,2.18.53,2.36.58,1.65,4.36,11.22,5.48,13.67.94,2.23,1.29,2.58,3.21,3.07.8.22,1.07.45,1.07.67,0,.36-.45.71-.94.71-2.14,0-3.78-.22-5.25-.22-1.07,0-1.83.13-3.25.13-.67,0-1.07-.31-1.07-.62,0-.27.31-.49,1.07-.67,1.34-.31,1.78-1.02,1.78-1.56,0-.36-.75-2.67-1.07-3.38-.09-.27-.27-.4-1.07-.44-.58-.05-3.65-.05-5.17,0-.85.04-1.25.04-1.38.27-.31.76-1.07,2.54-1.07,3.43s.27,1.29,1.74,1.74c.49.18.98.27.98.71,0,.36-.49.54-1.02.54-1.16,0-2.09-.13-3.25-.13-1.47,0-2.58.22-3.69.22-.4,0-.89-.18-.89-.53s.44-.54,1.07-.71c1.56-.4,2.18-.76,3.34-2.89.71-1.43,4.36-10.06,4.94-11.49.58-1.34.94-2.31,1.02-2.89.05-.22.22-.49.54-.8.27-.4.8-.76,1.11-1.16.36-.49.53-.54.76-.54.18,0,.44.22.49.54ZM251.2,18.48c-.8-2.14-2.31-5.97-2.54-6.5,0-.05-.36-.22-.44-.05-.8,2.05-2,4.81-2.67,6.63,0,.13.13.4.31.4.8.05,4.32.09,5.03-.04.13,0,.4-.22.31-.45Z"/>
  <path class="cls-1" d="M274.31,7.21c5.03,0,5.43-.31,6.54-1.02.18-.09.67.13.67.67-.09,2,.13,3.83.13,4.32,0,.62-.4.98-.62.98-.31,0-.58-.31-.71-.8-.8-2.32-1.51-2.45-2.45-2.49-.94-.05-3.43,0-4.85.13-.18,0-.31.4-.36.62-.09.67-.09,5.61-.09,10.15,0,2.45.09,3.92.31,4.67.27,1.02.67,1.2,2.49,1.69.8.18,1.11.45,1.11.76s-.62.58-1.2.58c-1.87,0-2.32-.18-4.45-.18-1.16,0-3.56.22-4.68.22-.62,0-1.11-.27-1.11-.62s.67-.58,1.25-.71c2.49-.62,2.54-1.16,2.63-2.89.13-3.92.27-8.55.27-13.71,0-.09-.18-.49-.44-.54-.8-.13-3.56-.36-4.5-.26-.85.09-1.47.49-2.23,1.69-.54.8-.67,1.2-1.02,1.2s-.54-.54-.54-.89c.05-.85.54-2.94.54-4.01,0-.54.54-.76.67-.76.31,0,.62.31.8.49.4.36,1.34.71,6.01.71h5.83Z"/>
  <path class="cls-1" d="M298.79,7.21c.31.05.45.58.45,1.07,0,1.29.05,2.32-.05,2.89-.13.85-.49.98-.62.98-.4,0-.58-.54-.71-1.07-.36-1.29-.93-2-1.51-2.49-.58-.49-1.6-.89-2.67-.89-2.23,0-3.74,1.56-3.74,3.47,0,1.51,1.25,2.72,2.76,3.56,1.42.8,2.63,1.38,3.92,2.14,1.87,1.07,3.38,2.72,3.38,5.21,0,2.05-1.38,3.74-2.67,4.54-.93.62-2.98,1.38-4.94,1.38-2.67,0-4.59-.62-5.61-1.38-.36-.22-.45-.67-.49-.93-.04-.54-.4-2.67-.4-3.34,0-.85.31-1.2.62-1.2.4,0,.53.49.71.98.22.58.67,1.51,1.02,2.09,1.11,1.47,2.67,2.54,4.63,2.54,2.49,0,3.69-1.78,3.69-3.29,0-1.74-.93-2.67-2.58-3.69-1.34-.8-2.54-1.43-3.52-2.05-1.6-1.02-3.65-2.76-3.65-5.43,0-3.34,2.76-5.79,7.21-5.79,2.27,0,3.52.54,4.76.71Z"/>
  <path class="cls-1" d="M327.37,16.96c0,3.7-1.16,6.19-3.56,8.37-2.45,2.31-6.05,2.67-7.17,2.67-7.35,0-11.44-5.39-11.44-10.73,0-3.12,1.2-5.79,3.21-7.66,2.58-2.45,5.61-3.12,7.83-3.12,6.23,0,11.13,4.63,11.13,10.46ZM311.44,9.84c-1.11,1.16-2.18,3.21-2.18,6.99,0,6.28,4.54,9.84,7.52,9.84,1.07,0,3.16-.31,4.85-2.45,1.2-1.56,1.74-4.32,1.74-7.03s-1.96-9.4-7.66-9.4c-1.07,0-2.98.58-4.28,2.05Z"/>
  <path class="cls-1" d="M332.27,6.99c1.02,0,4.01.22,5.03.22.36,0,.58.22.89.62.85,1.07,1.83,2.05,2.98,3.38,1.2,1.42,6.99,7.7,9.26,10.11.04.05.31.09.31-.18.05-2.45.27-8.28.05-10.42-.13-1.29-.62-2-2.76-2.49-.36-.13-.93-.31-.93-.71,0-.49.93-.49,1.07-.49,1.51,0,2.67.18,3.78.18.89,0,2-.18,3.12-.18.45,0,.94.18.94.49s-.22.44-.94.71c-1.74.49-2.09,1.07-2.27,2.8-.18,1.69-.4,7.39-.4,9.97s.13,5.43.13,5.74c0,.71-.18,1.2-.58,1.2-.31,0-.98-.36-1.34-.67-.76-.89-2.49-3.25-4.94-5.88-2.05-2.23-5.16-6.05-7.79-8.81-.09-.13-.4-.13-.4.18-.04,1.51-.27,7.97-.04,10.91.13,1.43,1.16,2.05,2.49,2.49.49.18.8.36.8.67,0,.44-.62.58-1.02.58-.13,0-1.51-.13-2.76-.13-1.11,0-2.98.27-3.96.27-.58,0-1.07-.13-1.07-.58,0-.22.18-.4,1.02-.62,2.14-.54,2.4-1.34,2.54-2.45.09-1.11.36-5.34.36-9.21,0-2.09-.04-3.34-.09-3.69-.04-.36-.71-1.47-1.6-2.14-.4-.31-.89-.54-1.82-.71-.8-.13-1.16-.36-1.16-.71,0-.18.54-.44,1.11-.44Z"/>
</svg>