<?xml version="1.0" encoding="UTF-8"?>
<svg id="Layer_1" data-name="Layer 1" xmlns="http://www.w3.org/2000/svg" viewBox="0 0 58.4 29.97">
  <defs>
    <style>
      .cls-1 {
        fill: #fffceb;
      }
    </style>
  </defs>
  <path class="cls-1" d="M16.67,2.93c.61-1.29.32-1.71-.64-1.96-.32-.07-.68-.32-.68-.5,0-.21.25-.39.89-.39.46,0,1,.11,1.89.11s1.64-.11,2.07-.11c.68,0,.86.21.86.32,0,.36-.32.43-.82.61-.86.29-1.29.61-2.07,1.82-.25.43-.89,1.36-2.32,4.18-.14.21-.11.43-.04.61.75,1.64,1.82,3.96,2.54,5.35.11.18.21.04.28-.11.36-.64,3.28-6.82,4.57-10.03.54-1.28.21-1.53-.86-1.82-.32-.07-.79-.18-.79-.5s.43-.39.79-.39c.64,0,1.71.07,2.21.07.82,0,1.86-.14,2.68-.14.46,0,.89.11.89.36,0,.36-.46.54-.96.64-.86.21-1.64.57-2.28,1.86-1.64,3.11-3.46,6.5-5.03,9.85l-1.54,3.53c-.11.36-.68.71-.89.71s-.36-.29-.46-.57c-.86-2.11-1.79-4.03-2.78-6.07-.11-.25-.25-.25-.32-.11-.79,1.61-2.25,4.28-2.93,6.03-.11.32-.39.71-.75.71-.21,0-.43-.32-.54-.61-.18-.28-.68-1.64-1.71-3.89-1-2.18-4.1-8.28-4.75-9.46-.46-.89-1.36-1.79-2.32-2.03-.43-.11-.86-.29-.86-.61,0-.18.25-.39,1.07-.39.57,0,2.07.18,3.46.18,1.18,0,1.89-.07,2.14-.07.5,0,.75.18.75.39s-.04.36-.79.61c-.39.14-1,.36-.75.89.54,1.25,3.32,7.03,5.21,10.81.07.14.21.11.28-.04.18-.32.93-1.86,1.93-3.93.07-.18.14-.29.04-.5-1-2.18-2.36-4.75-2.64-5.32-.82-1.54-1.11-1.82-1.82-2-.5-.14-.79-.32-.79-.57,0-.21.43-.39.86-.39.36,0,1.29.11,2.14.11,1.25,0,2.53-.14,2.78-.14.43,0,.75.14.75.36s-.14.43-.68.57c-.93.21-1.03.53-.75,1.14.25.5.89,1.93,1.71,3.75.07.14.29.18.36.04.57-1.07,1-2.03,1.39-2.96Z"/>
  <path class="cls-1" d="M28.98,16.32c.03,1.59-1.61,2.34-2.66,2.98-.08.05-.03.16,0,.16,1.1.7,3.28,2.8,4.44,4.22.16.21.24.16.4,0,.86-.86,2.37-3.09,2.77-3.71.35-.54.32-.67.32-.81,0-.19-.32-.4-1.16-.56-.19-.03-.54-.13-.54-.35,0-.16.24-.32.67-.32,1.18,0,2.23-.03,2.72-.08.59-.08,1.61-.24,1.91-.24.38,0,.59.16.59.27,0,.19-.19.32-.59.43-1.37.38-2.1,1.1-3.2,2.31-.81.89-2.47,2.98-3.23,3.82-.05.08-.08.24,0,.32l1.45,2.1c.81,1.16,1.94,1.42,2.96,1.45.7,0,1.51-.27,2.02-.59.19-.13.3,0,.3.11,0,.24-.13.51-.48.86-1.13,1.05-2.82,1.26-3.63,1.24-.54,0-1.24-.08-1.72-.27-.48-.21-.78-.48-1.1-1.08-.51-.94-.99-1.83-1.26-2.2-.03-.03-.11-.08-.16-.03-.86,1.02-2.26,2.39-3.12,2.9-.81.46-1.51.73-2.55.73-2.58,0-4.78-2.02-4.78-4.79,0-2.1,1.61-3.41,2.47-4.09.43-.32,1.48-1.05,1.61-1.13.05-.03.08-.11.03-.16-1.02-.81-1.8-1.94-1.8-3.09,0-1.48.86-2.39,1.26-2.74.73-.59,1.72-.99,2.55-.99,2.15.03,3.52,1.91,3.52,3.33ZM29.22,25.78c.11-.16.11-.35-.11-.62-1.32-1.8-4.06-4.33-4.76-4.71-.16-.11-.4-.08-.59.05-1.24.94-2.31,2.26-2.31,4.01,0,.99.48,1.99,1.21,2.61.67.59,1.51,1.05,2.66,1.05,1.4,0,3.01-1.18,3.9-2.39ZM23.42,15.91c0,1.24,1.1,2.39,2.12,3.01.16.08.3.03.38-.03.27-.16.4-.32.73-.7.32-.38.48-1.21.48-1.85,0-.89-.51-2.55-2.07-2.58-.46,0-1.64.51-1.64,2.15Z"/>
  <path class="cls-1" d="M46.94,2.93c.61-1.29.32-1.71-.64-1.96-.32-.07-.68-.32-.68-.5,0-.21.25-.39.89-.39.46,0,1,.11,1.89.11s1.64-.11,2.07-.11c.68,0,.86.21.86.32,0,.36-.32.43-.82.61-.86.29-1.29.61-2.07,1.82-.25.43-.89,1.36-2.32,4.18-.14.21-.11.43-.04.61.75,1.64,1.82,3.96,2.54,5.35.11.18.21.04.28-.11.36-.64,3.28-6.82,4.57-10.03.54-1.28.21-1.53-.86-1.82-.32-.07-.79-.18-.79-.5s.43-.39.79-.39c.64,0,1.71.07,2.21.07.82,0,1.86-.14,2.68-.14.46,0,.89.11.89.36,0,.36-.46.54-.96.64-.86.21-1.64.57-2.28,1.86-1.64,3.11-3.46,6.5-5.03,9.85l-1.54,3.53c-.11.36-.68.71-.89.71s-.36-.29-.46-.57c-.86-2.11-1.79-4.03-2.78-6.07-.11-.25-.25-.25-.32-.11-.79,1.61-2.25,4.28-2.93,6.03-.11.32-.39.71-.75.71-.21,0-.43-.32-.54-.61-.18-.28-.68-1.64-1.71-3.89-1-2.18-4.1-8.28-4.75-9.46-.46-.89-1.36-1.79-2.32-2.03-.43-.11-.86-.29-.86-.61,0-.18.25-.39,1.07-.39.57,0,2.07.18,3.46.18,1.18,0,1.89-.07,2.14-.07.5,0,.75.18.75.39s-.04.36-.79.61c-.39.14-1,.36-.75.89.54,1.25,3.32,7.03,5.21,10.81.07.14.21.11.28-.04.18-.32.93-1.86,1.93-3.93.07-.18.14-.29.04-.5-1-2.18-2.36-4.75-2.64-5.32-.82-1.54-1.11-1.82-1.82-2-.5-.14-.79-.32-.79-.57,0-.21.43-.39.86-.39.36,0,1.29.11,2.14.11,1.25,0,2.53-.14,2.78-.14.43,0,.75.14.75.36s-.14.43-.68.57c-.93.21-1.03.53-.75,1.14.25.5.89,1.93,1.71,3.75.07.14.29.18.36.04.57-1.07,1-2.03,1.39-2.96Z"/>
</svg>